<svg xmlns:svg="http://www.w3.org/2000/svg" xmlns="http://www.w3.org/2000/svg" xmlns:xlink="http://www.w3.org/1999/xlink" xmlns:inkscape="http://www.inkscape.org/namespaces/inkscape" width="2306.85302734" height="1024.0" id="svgoverlay" version="1.1">
  <defs id="defs4">
    <clipPath id="edgeclip">
      <path id="clippath" d="M1150.697144 815.044678 L1148.815918 816.953186, 1146.896973 818.877319, 1145.424561 818.179688, 1143.742676 817.586548, 1141.880737 817.207886, 1140.070190 816.891602, 1138.014526 818.819031, 1136.085938 820.863037, 1134.266602 822.890259, 1132.508179 822.656982, 1130.604004 822.523193, 1128.686157 822.581848, 1126.652344 822.798950, 1124.594604 822.944214, 1122.570312 823.119934, 1120.171631 825.497314, 1117.714111 827.825378, 1115.395142 830.275513, 1113.145020 832.758667, 1110.938477 835.432739, 1108.798462 838.224670, 1106.679077 841.477905, 1104.686035 845.139709, 1102.628906 849.202759, 1100.703491 853.454468, 1098.569458 857.319702, 1097.008179 857.470093, 1095.412231 857.632751, 1093.886230 860.755737, 1092.649170 863.106262, 1091.726929 864.771240, 1091.051880 866.044434, 1090.183716 867.394226, 1088.888916 867.188354, 1087.507568 867.116394, 1086.034424 867.171814, 1084.497559 867.346191, 1082.917358 867.604858, 1081.347168 868.036377, 1079.760742 868.555664, 1078.200439 869.274414, 1077.625122 866.865967, 1076.666870 864.839050, 1075.658203 863.349243, 1073.783691 864.009644, 1071.980591 864.926636, 1070.259277 865.997498, 1068.642090 867.312256, 1066.961060 868.401245, 1065.246460 869.722229, 1063.614258 871.029785, 1061.890503 872.130249, 1060.150391 873.474365, 1058.403442 874.726807, 1056.652710 875.994080, 1054.787720 877.246582, 1052.508301 876.089478, 1050.323364 877.497559, 1048.171753 878.943542, 1046.041260 880.331177, 1043.882446 881.773621, 1041.692749 883.137634, 1039.531738 884.559326, 1037.468506 885.925049, 1035.238403 887.259033, 1033.083618 888.740662, 1032.748291 891.646973, 1030.818115 892.792725, 1028.978149 894.076904, 1027.310913 895.065002, 1025.623413 895.999146, 1023.965393 896.930420, 1022.174011 897.755493, 1020.464233 898.678040, 1018.609497 899.611816, 1016.730103 900.567810, 1014.618591 901.322754, 1012.066162 900.550171, 1009.999329 901.643311, 1008.871216 904.566284, 1008.289185 907.783630, 1008.391541 910.947083, 1008.678528 913.942078, 1006.974976 914.271362, 1005.133667 914.614441, 1003.251343 915.101868, 1001.310181 915.517395, 999.373901 915.926147, 997.205627 916.313782, 994.813171 917.028809, 992.465576 917.631653, 992.074768 920.283020, 991.803345 923.026245, 991.816101 925.621521, 992.075500 928.009521, 992.422791 930.371277, 990.215576 930.335083, 987.987122 930.400574, 985.662231 930.503296, 983.337585 930.729919, 980.899048 931.212708, 978.627441 931.733765, 978.726624 934.085938, 978.796814 936.503235, 979.110229 938.641296, 979.345642 940.509094, 979.509766 942.273987, 976.584595 942.160034, 973.630554 942.013977, 970.646240 941.966858, 967.593079 941.916382, 964.455017 942.022339, 961.103455 942.440674, 957.859680 943.105042, 957.535339 945.031372, 957.233704 947.056030, 957.123169 949.029846, 957.139954 950.920410, 957.331604 952.694519, 953.842896 952.993896, 950.164429 953.484680, 946.440308 954.110168, 942.696777 954.825684, 938.839294 955.762817, 934.986755 956.890564, 931.146790 957.898987, 930.165649 960.077332, 929.024170 962.345398, 927.917236 964.609436, 926.880127 966.692017, 925.947083 968.659363, 922.410706 967.768921, 919.012878 967.131897, 915.273682 966.261597, 911.836487 965.424805, 910.683228 966.885437, 909.291809 968.267944, 908.243042 969.716736, 907.396301 971.308044, 906.764099 972.997986, 906.341492 974.767090, 903.698120 973.360291, 900.809143 972.054016, 897.996033 971.136292, 897.563354 972.796204, 897.242065 974.501221, 897.065613 976.203918, 896.998840 977.840881, 897.196533 979.542480, 894.380554 979.029236, 891.539978 978.305054, 888.482971 978.044922, 885.639160 978.294556, 885.717285 980.160278, 885.700745 982.082214, 885.867432 984.076477, 886.044312 986.045898, 886.328735 987.982666, 886.512512 989.822937, 887.014709 991.538391, 884.193787 992.088135, 881.541809 992.499878, 878.887024 993.270935, 876.434448 993.928345, 876.629089 996.314270, 876.705994 998.764832, 877.312866 1001.143738, 877.974731 1003.362000, 878.908325 1005.627930, 881.808350 1007.220093, 882.890991 1009.011414, 883.924316 1010.763794, 885.188660 1012.482056, 886.572327 1014.104919, 888.147217 1015.640503, 889.601196 1017.160339, 891.358032 1018.828735, 894.467834 1019.083130, 897.774414 1018.085022, 896.865295 1019.185059, 893.535828 1020.029480, 892.098022 1020.481628, 890.769043 1021.033020, 889.372986 1021.567078, 888.012634 1022.163757, 886.739075 1022.796936, 883.448059 1022.131042, 880.086792 1020.939697, 876.367126 1020.163147, 874.946289 1020.994385, 873.661072 1021.945435, 872.527161 1022.958435, 871.650696 1024.000000, 868.314636 1023.754028, 865.070312 1023.107605, 861.877808 1022.654480, 858.644165 1022.223633, 855.446777 1021.762512, 852.230347 1021.317444, 849.099426 1020.891296, 845.968811 1020.490662, 842.936035 1020.113892, 842.159546 1021.839844, 839.228882 1021.631409, 836.364807 1021.350769, 833.467468 1021.154175, 830.510986 1020.867920, 827.521179 1020.645691, 824.561462 1020.376099, 821.499146 1020.086670, 818.332581 1019.856750, 815.273315 1019.650208, 812.291504 1019.443298, 809.578552 1019.246155, 807.202148 1019.108765, 805.303894 1019.137817, 803.828613 1019.436523, 802.675720 1016.805847, 801.587463 1014.078186, 800.402100 1011.251892, 799.148193 1008.433228, 800.238342 1005.564331, 799.244507 1002.582031, 798.276978 999.499939, 797.463257 996.183960, 796.516357 993.250183, 798.337097 990.982788, 800.127014 988.849060, 801.854736 986.716370, 803.633545 984.489929, 805.552185 982.318359, 805.520630 978.470154, 807.572571 976.191162, 809.918884 973.945801, 812.046509 971.919434, 814.380859 970.100891, 815.056213 966.516846, 815.884827 962.872437, 816.609131 959.632568, 817.516602 956.336487, 817.859436 953.132629, 817.703735 949.827881, 815.526367 947.136597, 813.174133 946.350952, 809.463318 947.338989, 806.197937 949.006470, 803.208313 950.992065, 800.597900 953.314819, 797.876953 955.692078, 795.689270 954.988220, 793.277405 954.357910, 790.923523 953.588013, 788.549683 952.935486, 785.516663 955.434265, 783.495178 954.578613, 781.713013 953.550293, 780.061951 952.364868, 778.323364 951.039978, 776.590698 949.535278, 773.643311 950.844177, 770.631592 951.969849, 767.649597 953.077026, 764.602783 953.789734, 762.678772 951.740295, 759.415771 952.182556, 756.283386 952.436462, 753.280945 952.279663, 750.346252 951.860840, 747.398987 951.355347, 744.617310 950.829590, 743.763611 952.138733, 742.692505 953.547852, 741.441833 955.239990, 739.933594 957.224487, 738.186218 959.325867, 736.191895 961.503357, 734.159668 963.551819, 732.107117 965.370667, 730.055725 967.056885, 727.993225 968.599182, 725.861206 970.045654, 723.707275 971.385986, 721.512695 972.641174, 719.300903 973.887939, 717.017090 975.104492, 714.625122 976.334900, 715.174561 978.260986, 712.593628 979.180237, 709.836792 980.306213, 706.990784 981.358887, 704.109802 982.284912, 701.203979 983.238586, 698.217896 984.333923, 694.737854 984.268250, 695.182068 983.285522, 695.126648 982.184509, 694.931274 981.055786, 694.631042 979.900696, 694.179871 978.746094, 693.569458 977.591553, 692.789062 976.448914, 691.917480 975.309387, 690.938721 974.171875, 689.838989 973.037415, 688.654846 971.927979, 687.412964 970.823303, 686.129333 969.769653, 684.741577 968.745728, 683.297974 967.707764, 681.721741 966.718140, 680.098694 965.756836, 678.359924 964.771423, 679.903625 963.441223, 681.171997 961.690430, 682.453918 959.790039, 683.737610 957.845093, 685.049438 955.864075, 686.301697 953.890381, 687.633240 951.901001, 688.985901 949.908508, 690.306641 947.913696, 691.697327 945.943970, 692.997131 943.938721, 694.335632 941.969177, 695.655396 939.950623, 696.983582 937.918396, 698.384155 935.786438, 699.859375 933.556274, 701.322449 931.159424, 702.784851 928.759460, 704.083069 926.422729, 705.289551 924.280762, 706.199829 922.284851, 706.736450 920.509827, 707.039368 918.919434, 707.007996 917.408997, 706.825623 915.940430, 706.624390 914.456787, 706.384338 912.880615, 706.208618 911.251099, 706.054260 909.472046, 706.078857 907.509888, 706.170715 905.424316, 706.438354 903.227905, 706.850586 900.932983, 707.367310 898.559082, 707.916199 896.131348, 708.522583 893.654053, 709.376709 891.073975, 710.192017 888.367493, 711.154480 885.680115, 712.257446 882.900513, 713.204041 880.150696, 714.219055 877.478149, 715.080322 874.683594, 715.886108 872.083374, 716.583008 869.469604, 717.132080 866.851685, 717.547119 864.199951, 717.833191 861.623230, 718.076782 858.944092, 718.242737 856.228638, 720.132629 853.892578, 720.116577 850.944580, 718.299622 849.048157, 718.169556 845.941650, 717.848022 842.984619, 717.609680 839.802307, 717.038208 836.517456, 716.217346 833.337402, 715.167664 830.047974, 713.986328 826.933716, 710.760864 823.856201, 706.532043 822.336914, 703.225647 822.711609, 700.106384 823.256470, 696.353760 823.835327, 692.825623 824.547424, 689.446411 825.444824, 686.185974 826.362610, 683.107300 827.072754, 680.020447 827.643738, 677.188904 828.214417, 674.022217 828.608521, 670.797241 829.022705, 667.293396 829.271240, 663.940186 829.537415, 660.224548 829.733704, 656.555115 829.742249, 652.908997 829.583252, 648.747620 829.341248, 644.370911 829.125671, 640.426453 828.809998, 636.376343 828.266968, 632.377380 827.666870, 628.490356 827.177612, 624.330750 826.660889, 620.389404 826.037598, 616.683411 825.610474, 613.154663 825.066650, 610.034851 824.655518, 606.983521 824.320068, 604.032471 824.119873, 601.297180 824.292114, 598.900208 824.340088, 596.533630 824.605225, 594.187073 824.776001, 591.715088 824.925781, 589.136963 824.840393, 586.429993 824.569214, 583.733643 824.040161, 580.780396 823.013000, 577.413635 821.622681, 574.071350 820.038086, 570.617554 818.090698, 567.222961 816.138977, 563.778809 813.715271, 560.922546 811.761963, 557.982239 809.619507, 555.281433 807.454712, 552.500854 805.018616, 549.707642 802.676392, 546.930420 800.211426, 544.308655 797.861511, 541.630127 795.297180, 539.098450 792.963989, 536.384705 790.202942, 533.831360 787.725281, 531.149658 784.971436, 527.961731 781.886963, 525.054993 779.379028, 522.104797 776.854004, 518.510742 774.456787, 515.620483 772.293457, 512.451355 772.050720, 509.687927 772.060547, 506.690552 771.778687, 503.960388 771.769409, 501.405762 771.766418, 498.908691 771.833008, 496.696381 772.114929, 494.748932 772.165894, 492.782166 772.280029, 491.020844 772.419861, 489.334290 772.603882, 487.794556 772.783081, 486.326843 772.964905, 485.034119 773.135925, 483.796967 773.263550, 482.628693 773.426819, 481.522675 773.590027, 480.472534 773.789368, 479.444031 773.919067, 478.427612 774.064575, 477.390411 774.098328, 476.362000 774.165649, 475.255951 774.080933, 474.190521 774.124756, 472.234467 771.474060, 470.022125 769.372314, 467.571777 767.753906, 466.046082 768.254517, 464.597565 768.806763, 463.234009 769.436401, 462.153412 770.143188, 460.860718 767.999512, 459.950653 765.999268, 459.030731 763.956421, 460.463593 763.467041, 459.725311 761.354309, 458.766632 759.213623, 457.642944 757.138367, 456.423553 755.024963, 454.702179 752.769165, 452.638763 750.450195, 450.115845 748.076538, 446.473755 745.957825, 442.355225 743.801025, 437.525177 741.465881, 432.830109 739.402039, 428.145294 737.410156, 423.527588 735.551147, 418.510773 733.591919, 413.957733 731.772278, 409.390686 730.049072, 404.884430 728.428223, 400.048767 726.784302, 395.664307 725.414795, 391.029022 724.071899, 386.173920 722.879822, 382.029541 721.753235, 380.272156 722.264221, 376.148865 721.331177, 372.431335 720.433594, 369.290955 719.566528, 366.211945 718.631958, 363.251068 717.756104, 360.306519 716.805298, 357.078888 715.831543, 355.062256 713.825806, 352.967773 711.682068, 350.684692 709.315308, 346.595306 707.584717, 342.540680 705.773682, 338.042145 703.792236, 333.731659 701.887878, 329.175537 699.981079, 324.933197 698.250000, 320.772034 696.725464, 316.923706 695.193970, 313.308167 693.771179, 312.057709 691.242065, 310.956970 688.775574, 309.809723 686.176270, 305.997681 684.263123, 302.446808 682.491272, 299.159607 680.657104, 295.977509 679.189575, 294.986023 676.507568, 293.828369 673.779297, 292.886230 671.299438, 290.097504 669.513184, 287.436829 667.844482, 284.778687 665.977539, 282.392792 664.558472, 279.985840 662.978271, 277.867920 661.208862, 275.708374 659.568848, 275.750732 657.000000, 275.719727 653.993042, 275.476929 651.108887, 273.454132 649.135498, 271.495453 646.721008, 269.590607 644.564941, 267.772827 642.113647, 267.825287 639.168579, 267.543610 635.728027, 267.675995 632.934265, 265.805359 629.991394, 264.145325 627.213013, 262.176483 624.139038, 260.624756 621.403076, 258.647949 618.443604, 256.436371 615.609009, 254.192307 612.411682, 252.239365 609.657166, 250.083313 606.394165, 247.882675 602.953918, 245.831741 599.480835, 243.730698 595.919434, 244.261459 592.262390, 244.827667 588.687195, 245.210739 584.739319, 243.285202 580.558594, 241.299774 576.208679, 239.519257 572.281433, 237.690857 567.934570, 235.750778 563.502686, 236.122589 559.377380, 236.440887 555.589355, 234.640625 551.989502, 232.584915 547.897827, 230.808975 544.587158, 228.871857 540.912720, 227.063522 537.208862, 224.027313 531.943787, 221.647232 527.688171, 219.512222 523.317017, 214.702911 519.386475, 209.598785 518.166626, 205.117874 518.726318, 200.890610 518.726440, 196.958405 519.020264, 194.221390 519.830933, 191.732391 520.718018, 188.286346 521.531738, 185.300995 522.629211, 182.203293 521.239136, 178.577820 519.859253, 174.780884 520.878662, 170.438004 521.729553, 166.595627 522.465088, 162.743256 523.062134, 158.737473 523.989624, 155.171143 522.040894, 151.929367 520.478882, 148.466980 518.888367, 144.002853 519.303467, 139.615585 519.460693, 134.868301 519.562256, 130.960938 519.720764, 126.509438 519.194458, 122.781296 519.089600, 119.274849 518.859497, 115.983177 518.411743, 112.877312 518.133667, 110.013100 517.770020, 107.196869 517.636658, 104.503166 517.642700, 103.161995 515.665894, 101.182411 513.647217, 99.263664 511.761719, 96.684837 511.693298, 93.850883 511.372803, 91.175652 511.131470, 88.484711 510.851807, 86.672028 508.694458, 84.663879 506.399963, 82.847160 504.209534, 80.045692 503.793213, 76.993553 503.037048, 74.125404 502.346680, 71.234009 501.532288, 68.316071 500.699036, 65.488693 499.845093, 62.511620 498.953186, 61.101437 496.671753, 59.803688 494.360962, 58.214603 492.010132, 55.141441 490.858704, 51.972298 489.462341, 48.840420 488.211609, 45.672234 486.856018, 44.702560 484.349365, 43.729805 481.813293, 42.939457 479.374573, 40.046257 477.662415, 37.063232 475.942566, 33.881138 474.107117, 30.686089 472.469849, 27.502081 470.535095, 24.298643 468.437988, 21.235672 466.238892, 18.402458 463.865234, 15.747932 461.367310, 15.960703 458.948364, 16.149902 456.396057, 16.529257 454.019287, 14.697462 451.508667, 13.392495 449.091980, 12.460832 446.742371, 11.765720 444.356995, 11.205341 441.825867, 10.406075 439.113037, 9.559562 435.972656, 9.473137 432.914246, 8.419374 429.417297, 7.378247 428.758240, 6.230204 428.006470, 5.803709 424.683411, 5.250550 421.210083, 4.793689 417.825012, 4.353710 414.529419, 3.806603 411.166382, 3.233909 407.778564, 2.673318 404.331848, 2.140863 400.819336, 1.683471 397.207275, 1.227567 393.653259, 0.843541 390.121033, 0.422991 386.762390, 0.000000 383.509399, 0.492428 380.598755, 0.900874 377.746460, 1.184567 375.022522, 1.361769 372.384399, 1.871715 369.754944, 2.986633 369.931458, 3.271281 367.348511, 3.517708 364.654419, 4.518703 362.070374, 5.554628 362.371887, 6.603931 362.702209, 7.595582 360.166199, 10.301495 358.398926, 8.581606 360.581726, 8.826971 363.221069, 9.753008 365.814087, 10.812291 368.375000, 11.750219 371.067932, 12.549379 373.738892, 13.174205 376.437012, 13.508224 379.240601, 13.757198 382.200806, 14.789619 382.130432, 15.793162 382.051208, 16.854994 381.965271, 17.936148 381.822998, 19.077715 381.622009, 20.304646 381.460022, 21.677244 381.261719, 21.637110 383.838867, 22.137608 386.357971, 22.532675 388.766174, 22.854803 391.015808, 24.173040 390.157104, 25.491385 389.847229, 26.870884 390.299194, 28.291048 391.442627, 29.948507 393.259094, 31.867682 395.366638, 33.829113 397.510376, 35.721958 399.247009, 34.800911 401.385864, 33.011692 403.616577, 31.396914 405.264709, 30.378401 406.852722, 27.746489 408.698120, 25.348476 410.840759, 25.839630 411.021912, 23.739008 407.278198, 22.193455 404.374451, 21.158379 401.913452, 20.640150 399.300842, 20.472610 397.192505, 20.339682 394.998291, 20.303158 392.786926, 20.371321 390.576416, 20.520494 388.395691, 20.665314 386.266846, 20.900167 384.158936, 21.245333 382.011414, 21.567673 379.812012, 21.834803 377.686340, 22.039503 375.653992, 22.217556 373.512512, 25.085913 375.651062, 29.070248 376.588440, 33.327129 377.170349, 38.113598 377.167236, 42.569660 376.874329, 43.886940 374.154358, 45.508835 371.765625, 46.806580 369.558411, 48.053577 367.307373, 49.323399 364.882263, 50.709377 362.213928, 51.992153 359.577454, 52.969894 357.066833, 53.972374 354.105896, 56.468174 357.225525, 62.020573 359.083557, 65.015060 360.303589, 65.808380 356.581177, 67.603973 352.690674, 70.126633 348.748047, 73.415749 344.906250, 77.536728 341.565918, 82.149078 338.882874, 85.172661 343.698181, 87.247902 347.477173, 93.123810 349.421021, 99.018402 355.488403, 102.327904 363.203430, 104.535553 370.746704, 104.845787 377.432556, 105.395866 383.756348, 105.081490 388.855042, 104.134430 393.041992, 103.040428 396.662231, 101.553062 399.687195, 101.366936 401.397461, 97.039879 399.396057, 91.416023 397.402466, 87.224014 395.001892, 85.536194 396.443298, 83.181496 397.754761, 81.749016 398.701111, 80.571457 399.578186, 79.795128 400.545715, 76.546669 396.778381, 73.911575 392.614075, 71.192390 388.370850, 69.218109 384.327942, 67.703987 384.373657, 65.558983 384.668823, 64.370064 385.311584, 63.281052 381.400635, 62.530838 377.247131, 61.842415 373.105652, 61.277153 369.053589, 60.849487 365.223816, 60.689381 361.278503, 60.599346 357.611511, 60.710083 353.945007, 61.090714 350.230652, 61.535683 347.177368, 62.120796 344.181458, 62.595497 341.445618, 64.963463 338.686523, 65.430511 336.515198, 65.735336 334.494629, 68.325836 332.323730, 71.253120 330.191467, 74.105766 328.170166, 77.097069 326.304321, 80.367714 325.068848, 81.073441 323.380249, 82.136124 321.549683, 83.202629 319.811584, 84.217529 318.067322, 85.159920 316.332458, 88.447762 316.147583, 91.820435 315.995850, 92.979095 314.510864, 94.125656 313.093140, 97.432503 313.617432, 101.140152 314.121155, 104.936882 314.840820, 108.559494 315.648010, 109.938675 314.194214, 111.389091 312.685181, 112.804901 311.139709, 114.232925 309.533264, 115.768181 307.934387, 117.429886 306.331543, 119.182686 304.743103, 120.947914 303.183838, 123.776352 304.116272, 126.786018 304.894287, 128.624191 303.162354, 130.491547 301.446411, 132.389481 299.742859, 134.320129 298.081604, 136.234100 296.363892, 138.271133 294.709656, 140.453079 293.072937, 142.450180 291.574524, 145.595123 292.563477, 147.888657 290.849060, 147.678757 287.775208, 149.869202 286.220032, 152.032883 284.510193, 154.295105 282.653992, 156.684631 280.747253, 158.885056 278.880859, 161.171478 276.768494, 163.392288 274.911072, 165.688049 272.949158, 166.254913 269.950012, 166.975403 266.668152, 167.475464 263.475098, 167.927765 260.217834, 170.113327 258.920532, 172.267776 257.386536, 174.329758 255.822205, 174.876114 252.841370, 175.483215 249.762268, 176.086807 246.763611, 176.627441 243.753113, 177.129745 240.836060, 177.686829 237.831055, 179.843399 236.702698, 181.935318 235.650330, 182.435287 232.688843, 182.955109 229.689087, 183.441269 226.655518, 183.881668 223.661804, 184.262192 220.697327, 184.672867 217.738525, 185.042557 214.797668, 185.419373 211.889038, 185.769531 208.961365, 186.055878 206.037170, 186.243912 203.116882, 186.420151 200.186462, 186.638336 197.252747, 186.705124 194.401489, 186.809280 191.558167, 189.058853 187.899658, 189.199432 190.863159, 192.488235 190.109131, 194.038559 192.614990, 196.128036 194.994812, 198.458740 194.534912, 200.563400 194.082642, 202.393280 193.368958, 203.179916 195.460144, 204.282516 197.335571, 205.478653 199.009460, 206.830856 200.563416, 208.555527 199.607910, 210.456650 198.608704, 212.274017 197.515869, 214.042313 196.337769, 215.477448 197.749573, 217.320709 198.897156, 219.341171 200.013245, 221.485962 201.070801, 223.486145 199.756409, 225.608429 200.848267, 227.941360 201.721191, 230.060349 202.510498, 232.247284 203.081848, 234.317017 201.709351, 236.434097 200.318420, 238.310379 198.888733, 240.223602 197.414795, 241.849854 198.062500, 243.801834 198.362061, 245.620468 198.715210, 247.602493 199.020630, 249.615311 199.466003, 251.867020 199.799622, 254.089310 200.177368, 255.847107 198.869202, 257.976288 199.203735, 260.093384 199.489319, 262.157562 199.755615, 264.352386 200.055359, 266.632751 200.321472, 268.980225 200.701782, 271.353607 200.925964, 273.815643 201.280396, 275.620026 199.889587, 277.384003 198.392944, 279.417938 198.838318, 281.528961 199.191956, 283.759430 199.561279, 286.088654 199.843018, 288.406189 200.230835, 291.203522 200.542053, 293.766205 200.893188, 296.245209 201.127258, 298.699493 201.609253, 300.614746 200.237915, 303.388306 200.531616, 306.034119 200.955811, 308.764771 201.318970, 311.647980 201.854065, 314.574432 202.508972, 317.683258 203.052185, 320.673615 203.683777, 324.014648 204.371399, 327.151611 205.125671, 330.103943 205.547119, 333.796844 206.310730, 337.308594 206.726196, 341.278198 207.225098, 345.944519 207.436096, 350.434021 207.249023, 352.457306 208.540283, 357.330475 208.042847, 363.246674 205.875488, 367.669586 202.486328, 372.620361 198.937256, 374.547241 195.454102, 376.397736 192.133423, 378.133423 188.478333, 379.650726 185.120850, 380.897034 182.047913, 382.090149 178.864258, 383.023621 176.326843, 384.103973 173.757812, 385.165985 170.926392, 386.318329 168.438782, 387.373901 165.886841, 388.397552 163.435181, 389.407776 161.044312, 390.482880 158.867554, 391.478790 156.687744, 392.303680 154.737549, 393.115753 152.869812, 391.642395 151.185364, 392.377014 149.427307, 393.017334 147.588135, 393.685089 145.807068, 394.309021 144.135498, 394.907837 142.528564, 395.464386 140.993530, 395.990204 139.481323, 396.382996 138.007629, 396.749390 136.556519, 394.881195 135.567017, 392.856323 134.589966, 393.236206 133.182922, 393.472290 131.835632, 393.733887 130.533630, 393.908875 129.252625, 394.108154 127.965942, 394.219147 126.704834, 394.376007 125.366089, 394.393005 123.968445, 392.330170 123.244995, 392.355438 121.863770, 392.441223 120.587585, 392.547028 119.320923, 392.511963 118.010010, 392.481628 116.660339, 392.352325 115.130737, 392.249817 113.429565, 390.106598 112.719116, 388.032806 111.914551, 385.977936 111.062439, 383.939697 110.186096, 384.143005 108.211670, 384.198547 106.030029, 384.347809 103.746399, 384.556549 101.432251, 382.622986 100.283813, 383.136902 98.185181, 383.642090 96.145508, 384.348816 94.047546, 385.169586 91.907837, 383.642151 90.635498, 382.226807 89.309509, 380.770233 88.172241, 379.274048 87.336060, 380.551300 85.802612, 381.706970 84.144409, 382.872559 82.265869, 384.008759 80.132446, 382.489380 78.512451, 380.915039 76.669434, 378.791809 75.475952, 380.725006 72.338013, 382.721344 73.901306, 383.679871 76.051819, 386.403259 75.506958, 389.209930 74.749084, 391.970581 73.997253, 394.680084 73.234619, 397.313324 72.531799, 400.003265 71.786438, 402.655457 71.086792, 405.283905 70.423401, 407.983093 69.719299, 410.718781 69.044434, 413.344421 68.367493, 416.101929 67.821533, 417.545349 69.423340, 420.185913 68.617004, 421.403992 66.325012, 424.012390 65.450256, 426.592804 64.557922, 429.144562 63.688110, 431.661591 62.795776, 434.126495 61.851990, 436.540375 60.861511, 438.936798 59.802734, 441.292389 58.667786, 443.613739 57.484802, 445.924683 56.203735, 446.920685 54.024231, 447.824341 51.709106, 448.660278 49.283081, 451.126770 47.999878, 453.651489 46.685364, 456.063538 45.318298, 457.044037 42.881165, 457.968781 40.385071, 458.822266 37.850647, 459.642609 35.197998, 460.426270 32.538208, 462.827606 31.182068, 465.188141 29.864441, 467.522308 28.469971, 468.348541 25.731567, 469.142853 22.911865, 469.912842 20.049316, 472.347626 18.775696, 474.768524 17.539490, 477.240112 16.303040, 479.700195 15.116455, 480.702148 12.402161, 481.858887 9.718750, 482.949707 6.966431, 484.130768 4.252136, 486.909027 3.366760, 489.644257 2.566345, 492.348511 1.728699, 494.977722 0.825378, 497.731354 0.000000, 498.474823 1.377930, 499.268402 2.589600, 500.041687 3.618042, 500.694061 4.559387, 501.280914 5.377319, 501.836426 6.174255, 502.429596 7.062744, 503.185425 8.099792, 504.116577 9.353943, 505.247955 10.828369, 506.496582 12.467102, 507.777710 14.142517, 509.014008 15.718994, 510.071777 17.150513, 511.053772 18.378357, 512.033325 19.516968, 513.083618 20.764954, 514.282959 22.225769, 515.586853 23.896667, 517.018616 25.738770, 518.511414 27.662292, 520.021545 29.598083, 521.506226 31.475830, 523.036072 33.212830, 524.560974 34.807861, 526.069946 36.259521, 527.559814 37.556030, 529.021912 38.593750, 528.566223 40.308716, 528.228699 42.005493, 529.665527 42.866638, 531.076721 43.643311, 532.561707 44.305176, 534.051147 44.903992, 535.622070 45.491638, 537.267822 46.069885, 538.942505 46.704224, 540.795593 47.467407, 542.768921 48.334717, 544.778503 49.300598, 546.880493 50.269836, 548.891846 51.374756, 550.867493 52.342957, 552.814392 53.395447, 554.951050 54.362610, 556.954224 55.425049, 559.129028 56.638794, 561.423035 57.780823, 563.504211 58.943726, 563.891174 61.278564, 566.118835 62.536804, 568.367065 63.788818, 570.518616 65.111938, 572.627502 66.391296, 574.646362 67.575317, 576.716614 68.804260, 578.830444 70.036011, 580.897583 71.280212, 582.973267 72.415222, 582.675354 74.388184, 582.657166 76.474182, 582.558044 78.441345, 584.472412 79.891846, 586.380554 81.579285, 588.289490 83.218811, 590.109436 84.834717, 591.912842 86.530945, 593.659424 88.265808, 595.366089 89.900208, 594.755615 92.087585, 596.402344 93.885193, 598.042175 95.670288, 599.694397 97.474060, 601.197510 99.250183, 602.747375 101.055237, 604.194763 102.893921, 605.642395 104.681030, 607.036560 106.502319, 608.303223 108.298340, 609.479187 110.230042, 610.752991 112.212463, 611.927246 114.132812, 613.255737 116.094238, 614.476990 118.284485, 615.868652 120.240112, 617.208252 122.347412, 618.718628 124.473938, 620.262085 126.627747, 622.101501 128.905579, 623.865295 131.044067, 625.815674 133.384766, 627.783325 135.580872, 629.699280 137.882568, 632.757080 137.781860, 636.141907 137.858032, 639.250488 137.502869, 640.419922 139.276733, 641.874390 141.146118, 643.254578 143.125061, 644.763000 145.113037, 646.219910 147.139954, 647.709717 149.258057, 649.207458 151.433350, 650.795288 153.707336, 652.369568 156.117798, 654.036804 158.450195, 655.669434 160.844604, 657.484680 163.442078, 659.249817 166.007874, 661.107971 168.646912, 663.032410 171.435425, 665.213501 174.462891, 667.256897 177.413147, 669.457886 180.484009, 672.123230 184.076111, 674.555908 187.238892, 677.268799 190.665405, 680.210571 193.989014, 683.761353 197.434204, 687.052612 200.323059, 690.474121 203.293030, 695.654541 206.361816, 700.955933 209.374023, 706.788452 212.820496, 712.723877 216.261230, 719.583191 219.873108, 725.584900 222.696167, 732.942444 225.981995, 738.731262 227.957031, 742.640076 228.370972, 744.601379 226.608032, 747.488525 224.858093, 750.765259 222.511841, 752.414429 219.750305, 753.590759 217.057678, 754.260010 214.570923, 756.389160 214.189514, 758.634155 213.851196, 761.006958 213.475037, 763.489197 213.045776, 765.971558 212.699890, 768.496948 212.343872, 771.030579 212.052002, 773.530396 211.866028, 776.062439 211.724182, 778.504822 211.506592, 780.954102 211.372070, 783.432129 211.220459, 785.929749 210.949890, 788.366821 210.701721, 790.793762 210.484863, 793.231873 210.162476, 795.708008 209.895020, 798.151733 209.644958, 800.648499 209.366821, 803.087830 209.055054, 805.442749 208.732422, 807.869507 208.450317, 810.245361 208.105896, 812.548157 207.720215, 814.936218 207.368347, 815.992981 204.834473, 816.967773 202.130920, 817.454712 199.397217, 819.485901 199.359985, 821.558411 199.170349, 823.616699 199.017151, 825.617981 198.828369, 827.584595 198.675354, 829.513489 198.575928, 831.477905 198.531921, 833.477539 198.406006, 835.504028 198.272339, 837.567444 198.101746, 839.620911 197.821167, 841.678589 197.527527, 843.766418 197.125305, 845.837952 196.607361, 847.943604 196.048340, 850.056152 195.406006, 852.169128 194.722961, 854.290649 194.019714, 856.420044 193.293457, 858.483093 192.432556, 860.515869 191.658325, 862.211426 193.164429, 864.149292 192.290649, 866.084900 191.436584, 868.050781 190.512512, 869.937256 189.521790, 871.785645 188.568237, 873.601318 187.593018, 875.180176 186.444885, 876.577881 187.940491, 877.872192 189.610962, 879.259094 191.239746, 880.832581 190.418091, 882.395325 189.549622, 883.794922 188.591736, 885.122620 187.675354, 886.540833 186.846680, 887.974731 186.000366, 889.411682 185.244507, 890.865295 184.497314, 892.273865 183.754517, 894.242310 185.571106, 895.701843 184.815918, 897.179993 184.015686, 898.706726 183.146484, 900.268860 182.308655, 901.891479 181.473022, 903.527954 180.628845, 905.337769 179.854431, 907.251526 179.059875, 909.282288 178.322815, 911.303284 177.619629, 913.392334 176.906677, 915.484131 176.198853, 917.401367 175.626343, 919.339233 175.051025, 921.125610 174.505920, 922.876465 173.936279, 924.641052 173.430786, 926.461609 172.946472, 928.224304 172.412292, 929.844299 173.575012, 931.417358 174.656372, 933.782837 174.284363, 936.364746 174.081543, 938.924133 173.868652, 941.512878 173.676270, 944.106934 173.438232, 946.800232 173.206787, 949.454224 172.816956, 952.151001 172.435120, 954.915527 171.945801, 957.460938 171.484375, 959.889832 170.991394, 962.076843 170.554626, 963.962524 170.096863, 965.639465 169.700012, 967.351868 169.271790, 969.246521 168.751892, 971.340515 168.142761, 973.570984 167.512939, 975.715149 166.822266, 977.721375 166.295654, 979.407959 165.908813, 980.838379 165.671753, 981.998108 165.555603, 983.031921 165.513306, 984.064758 165.481873, 985.205627 165.433289, 986.491577 165.382385, 987.917908 165.240967, 989.497925 165.038940, 991.139343 164.597046, 993.107910 166.851440, 994.781738 168.942566, 996.473267 170.850647, 998.105469 172.696838, 997.587463 175.024597, 997.331055 177.283081, 997.272644 179.484375, 998.916382 181.235229, 1000.602966 183.082336, 1002.261353 184.900208, 1003.999756 186.739014, 1005.714539 188.558289, 1007.474426 190.589355, 1007.438965 192.919189, 1007.535583 195.169678, 1009.294983 197.205811, 1011.093018 199.333313, 1012.776062 201.353821, 1014.564331 203.473206, 1016.364075 205.700623, 1018.140198 207.918701, 1018.337769 209.993103, 1020.227661 212.423950, 1022.152771 214.820923, 1024.065796 217.289734, 1026.097778 219.898254, 1028.036499 222.354126, 1030.000366 224.884949, 1032.017334 227.587463, 1033.867188 230.117310, 1035.546875 230.563721, 1037.207397 231.066162, 1039.254395 233.390991, 1041.277588 235.585815, 1043.015747 235.740356, 1044.722168 235.973145, 1046.299438 236.021240, 1047.896606 236.130371, 1049.439819 236.177368, 1050.960205 236.231201, 1052.458618 236.186584, 1053.921997 236.103943, 1055.338867 236.041626, 1056.678223 235.826904, 1057.999634 235.649963, 1059.266479 235.376770, 1060.527954 235.076416, 1061.812134 234.709473, 1063.100708 234.305969, 1064.362915 233.836609, 1065.597046 233.399292, 1067.180054 235.252563, 1068.385132 234.807373, 1069.573853 234.451904, 1070.752441 234.139465, 1071.904419 233.807434, 1073.073364 233.515442, 1074.254761 233.218140, 1075.424927 232.895752, 1076.627197 232.541809, 1077.798584 232.125610, 1078.953491 231.668274, 1080.116821 231.157532, 1081.251465 230.625183, 1082.375000 230.063904, 1083.449219 229.467712, 1084.519287 228.831665, 1085.556519 228.147339, 1086.578003 227.406311, 1087.575684 226.630920, 1088.534790 225.825684, 1089.497192 225.011353, 1090.422852 224.172363, 1091.251709 223.276794, 1093.260986 223.928711, 1094.161987 222.962097, 1095.080200 222.010437, 1095.889648 220.976807, 1096.681274 219.924194, 1097.383545 218.816467, 1097.869263 217.590759, 1097.957031 216.532959, 1100.027222 218.031982, 1100.699219 219.243713, 1101.470825 220.629578, 1102.938599 222.466675, 1102.372803 223.839600, 1101.714966 225.272522, 1103.619385 228.177551, 1106.000854 231.668823, 1108.464111 235.526550, 1110.851440 239.486572, 1112.956299 243.339661, 1114.788208 246.964783, 1116.344116 250.235474, 1117.676880 253.238159, 1118.839844 256.057861, 1119.825562 258.827393, 1120.978760 261.204285, 1119.890625 262.297729, 1118.772705 263.473083, 1117.546021 264.581116, 1116.232300 265.697205, 1114.858398 266.864441, 1113.421509 267.924133, 1113.921387 270.640686, 1114.362915 273.384094, 1115.129639 275.853760, 1113.676392 276.757141, 1112.154663 277.731384, 1110.620972 278.791077, 1109.098999 279.721069, 1109.512085 282.688049, 1109.944580 285.673523, 1110.427856 288.558105, 1110.839111 291.399109, 1111.273315 294.228149, 1111.713135 297.011047, 1112.131714 299.784607, 1112.442139 302.462097, 1112.663208 305.049561, 1112.802490 307.466675, 1112.889893 309.794189, 1112.956543 312.180237, 1112.962646 314.574768, 1112.882202 316.978638, 1112.639160 319.375488, 1112.254639 321.786011, 1111.732178 324.126648, 1111.191650 326.477966, 1110.631226 328.843079, 1112.052368 331.324646, 1113.432617 333.827271, 1112.786865 336.025208, 1112.078735 338.229614, 1111.333862 340.348145, 1110.568115 342.432373, 1109.751831 344.461609, 1108.970947 346.485352, 1108.267700 348.532349, 1107.521606 350.531860, 1108.723511 352.928467, 1109.848267 355.417175, 1111.071899 357.849121, 1112.087524 360.257751, 1113.045044 362.723022, 1114.007446 365.125000, 1114.896729 367.683777, 1115.720215 370.229675, 1114.807861 372.734131, 1113.990845 375.593933, 1113.111572 378.235291, 1113.844971 381.793579, 1114.466553 385.284180, 1114.966797 388.657104, 1115.537476 392.777954, 1115.829102 395.804932, 1116.098999 399.562805, 1116.411621 402.680908, 1116.254395 405.762024, 1116.396973 409.047546, 1116.167603 412.168030, 1116.046143 414.987976, 1115.560547 417.902710, 1115.180542 420.722473, 1113.281982 422.363159, 1112.722534 425.653076, 1112.258057 428.623901, 1111.581421 431.493591, 1111.108643 434.982788, 1110.571411 437.976135, 1109.907104 441.147339, 1109.463501 444.553711, 1109.035400 447.826355, 1108.693115 450.845520, 1108.296021 454.004944, 1108.069214 457.240295, 1107.791382 460.391968, 1107.546875 463.612305, 1105.606567 464.413147, 1105.327759 467.915894, 1105.063354 471.073669, 1104.800781 474.954834, 1104.639404 477.862122, 1104.376587 480.815979, 1105.890259 483.959534, 1105.651123 486.752747, 1105.353760 489.451294, 1105.090820 492.322754, 1104.699707 495.172485, 1104.322266 498.068237, 1103.923950 500.937317, 1103.479858 503.824158, 1102.932861 506.790771, 1102.452759 509.712585, 1104.339722 513.779419, 1103.771118 516.645874, 1103.249023 519.607666, 1102.682251 522.309265, 1101.950806 525.055176, 1101.221069 527.908447, 1100.125732 530.399902, 1099.040771 533.259155, 1100.289795 537.824890, 1099.040771 540.781128, 1097.598145 543.662231, 1096.171997 546.547363, 1094.560425 549.490723, 1092.807861 552.411865, 1090.878418 555.381409, 1088.753540 558.531189, 1086.604126 561.875854, 1084.378418 565.453674, 1081.957397 569.470764, 1080.400513 572.976929, 1079.414185 577.067322, 1078.836548 580.671631, 1079.997925 588.207520, 1081.794434 593.921997, 1083.870239 595.384033, 1087.083008 598.261963, 1090.642456 600.900269, 1094.440308 603.678833, 1098.283203 606.222046, 1102.118042 608.535889, 1105.466309 610.449341, 1108.612305 612.485474, 1112.225220 614.750488, 1115.193970 616.785950, 1118.087646 618.817383, 1120.871094 620.908203, 1123.486328 623.212280, 1126.023438 625.514038, 1130.412842 626.321594, 1132.307495 628.521912, 1134.462769 630.900024, 1136.284546 632.938599, 1137.782104 634.985657, 1139.588501 637.353088, 1141.163452 639.577209, 1142.810547 641.970154, 1147.015869 643.872559, 1148.647949 646.202026, 1150.244995 648.473206, 1151.654541 650.811035, 1153.317871 653.277954, 1154.679932 655.393311, 1155.990234 657.691162, 1157.416992 660.007935, 1158.673950 662.141602, 1160.001831 664.460999, 1162.890137 665.457703, 1163.921265 667.382202, 1165.257324 669.348755, 1166.663452 671.051392, 1165.242920 672.499268, 1166.536011 674.699097, 1167.903076 676.965820, 1169.416260 679.150635, 1170.622681 681.223694, 1172.010254 683.405151, 1173.276978 685.524780, 1174.371338 687.478455, 1175.385254 689.479492, 1176.396118 691.487854, 1177.059692 693.401367, 1177.809937 695.293945, 1178.415283 697.142639, 1178.836548 698.931213, 1176.752197 700.323608, 1177.150024 702.259888, 1177.573120 704.125000, 1177.979492 705.912842, 1178.405029 707.655029, 1178.831665 709.433472, 1179.296265 711.248474, 1179.711304 713.116333, 1180.079346 714.978027, 1180.386963 716.908447, 1180.689819 718.956299, 1180.954834 721.118652, 1181.261719 723.379517, 1181.485840 725.750122, 1179.849121 727.876892, 1178.596558 730.381531, 1177.691895 733.047485, 1178.467529 735.785706, 1179.262329 738.833984, 1180.042847 741.595764, 1180.684204 744.260620, 1181.426514 746.986145, 1182.179565 749.756958, 1183.002075 752.538208, 1183.830200 755.157349, 1183.034546 757.453613, 1182.292358 759.908081, 1181.494995 762.480042, 1180.711670 765.189453, 1179.882690 767.876465, 1178.949707 770.654175, 1177.817871 773.482788, 1176.727539 776.354614, 1177.062012 779.690002, 1177.195068 782.906128, 1175.864014 785.473938, 1174.373657 788.106995, 1172.762695 790.621460, 1171.119263 793.090027, 1169.490479 795.354858, 1167.778320 797.627747, 1166.070801 799.729736, 1164.336426 801.877258, 1162.546143 803.683838, 1160.690674 805.634644, 1158.768921 807.494446, 1156.715332 809.408447, 1154.701050 811.301331, 1152.695801 813.155823, 1150.697144 815.044678Z M2218.913818 396.511230 L2219.532227 393.119568, 2219.975342 389.677612, 2218.103027 388.005676, 2216.348633 386.210083, 2216.515381 383.173645, 2216.921387 380.023743, 2215.028076 377.994690, 2212.832764 376.133728, 2210.794189 374.116821, 2210.753418 370.940613, 2210.714111 367.869202, 2210.737549 364.803162, 2210.847656 361.750610, 2210.941162 358.718750, 2211.128174 355.678284, 2211.557373 352.718933, 2214.224365 351.314575, 2214.628662 348.304077, 2215.203369 345.386047, 2215.751465 342.446838, 2216.397705 339.627808, 2217.041992 336.741455, 2217.725342 333.909546, 2218.354492 331.093262, 2218.921143 328.329956, 2219.398926 325.548035, 2219.697021 322.797424, 2219.880127 320.187378, 2220.076172 317.633057, 2219.556396 314.565002, 2217.093262 313.711792, 2214.350586 312.617920, 2211.519775 311.377136, 2209.498047 312.997437, 2206.890137 314.265564, 2204.694824 315.555786, 2202.902100 314.388611, 2201.437988 313.119995, 2200.379639 311.873413, 2199.309082 310.633972, 2198.201416 309.333862, 2196.799805 307.969421, 2195.303711 306.483459, 2193.785645 304.969971, 2192.051025 303.297852, 2190.959229 304.424133, 2189.050781 305.135071, 2187.107666 305.865295, 2185.077393 306.622559, 2182.971680 307.305359, 2180.799805 307.885986, 2178.542236 308.428528, 2176.407959 309.009888, 2174.711426 307.217773, 2173.079346 305.312622, 2171.647949 303.437378, 2170.000244 301.514771, 2168.502441 302.312805, 2166.501221 302.770935, 2164.594482 303.378113, 2162.701172 303.936890, 2160.754150 304.501526, 2158.884766 305.065369, 2157.246826 303.190674, 2155.262207 303.750916, 2153.185547 304.149231, 2151.060059 304.478088, 2148.980469 304.946167, 2147.356689 303.279297, 2145.788574 301.753906, 2144.369873 300.275024, 2143.057373 298.905396, 2141.387939 297.531799, 2139.628418 298.753235, 2137.366211 299.611023, 2135.009766 300.410583, 2132.763916 301.193298, 2131.036621 299.943970, 2129.335205 298.674255, 2127.672607 297.407227, 2125.927246 296.201416, 2123.843018 297.270142, 2121.068115 298.069519, 2118.502441 298.883301, 2115.389404 299.410706, 2112.213867 299.907532, 2110.252197 298.813721, 2107.747803 297.584595, 2105.567139 296.537292, 2103.350830 295.355286, 2101.091309 294.149902, 2098.906982 292.854736, 2097.179443 291.552612, 2095.371826 292.377930, 2093.055664 292.897949, 2091.038330 293.431274, 2089.143799 292.034180, 2087.095703 290.703979, 2085.183594 289.221375, 2083.054688 287.731140, 2080.892090 288.559021, 2078.305176 289.187866, 2075.976318 289.976624, 2073.700195 288.527466, 2071.489502 287.306335, 2069.149658 286.213135, 2066.664795 287.378113, 2063.633545 288.244507, 2060.314697 289.216492, 2057.924561 288.226135, 2055.580322 287.299133, 2052.614014 286.329163, 2049.545898 287.217468, 2046.441284 287.940674, 2043.757324 288.771118, 2039.949341 289.315308, 2036.909424 290.011719, 2033.625854 288.989807, 2029.917725 287.882324, 2026.741699 288.541870, 2023.517456 289.251343, 2020.332397 289.923706, 2017.456299 288.825439, 2013.967896 287.869324, 2010.112061 286.572205, 2006.212158 285.328003, 2002.169312 285.740295, 1999.289062 285.851135, 1995.787231 285.943665, 1993.030640 286.470825, 1987.272217 284.148560, 1980.426636 280.806030, 1975.730835 277.093628, 1970.041260 272.922241, 1965.678711 269.148499, 1961.916748 265.909485, 1958.745361 263.240051, 1957.952759 260.808350, 1956.729858 257.774475, 1956.151001 254.876648, 1955.993774 252.242065, 1953.731079 250.332764, 1951.808472 248.408997, 1949.789795 246.610535, 1949.811646 243.985229, 1950.005249 241.508789, 1947.872314 239.529663, 1945.908447 237.466980, 1943.564819 235.405029, 1941.329102 233.061462, 1939.005981 230.781067, 1939.080078 228.419983, 1938.962646 225.836304, 1939.225098 223.587891, 1936.855957 221.774231, 1934.535522 219.687134, 1932.210327 217.773560, 1932.394165 215.707764, 1932.446289 213.334534, 1932.774780 211.424988, 1930.546387 210.001221, 1928.483521 208.511658, 1926.311768 207.166260, 1926.569824 205.299561, 1926.830811 203.454590, 1927.288574 201.679688, 1928.048828 200.409668, 1926.208618 199.678528, 1924.434692 198.671021, 1922.607178 197.682983, 1923.316528 196.187805, 1924.009155 194.756653, 1924.898438 193.287842, 1925.630005 191.821472, 1926.404663 190.269165, 1927.065674 188.608032, 1927.904175 187.350647, 1926.126587 185.717407, 1924.394531 184.171265, 1922.492188 182.788879, 1920.562378 181.431152, 1918.710327 180.163025, 1919.568359 178.668091, 1920.326172 177.128174, 1921.125488 175.717712, 1922.150635 174.748718, 1920.395020 173.903931, 1918.671631 172.803223, 1916.709595 171.372437, 1914.935791 169.983948, 1916.140259 168.805115, 1917.233154 167.313232, 1918.736206 166.324890, 1920.395874 165.449463, 1922.138794 164.675171, 1921.227173 163.293335, 1920.589722 161.564087, 1919.952271 159.770874, 1919.213135 158.040771, 1921.294678 156.827332, 1920.505859 155.287720, 1919.976318 153.806763, 1919.322876 152.307678, 1918.732422 150.661377, 1918.151001 148.763916, 1917.539673 146.992249, 1919.511841 145.485596, 1921.371826 143.915161, 1923.178711 142.350525, 1924.906128 140.885010, 1923.912354 138.954163, 1923.174683 136.669189, 1922.246216 134.418762, 1921.252075 132.191528, 1920.374268 130.129517, 1919.382568 127.978455, 1918.459473 125.949097, 1917.387817 123.994019, 1918.608765 121.961121, 1919.589844 119.703186, 1920.512695 117.490417, 1921.345947 115.431396, 1922.025391 113.533081, 1922.783936 111.829407, 1923.521851 110.225159, 1924.247437 108.446533, 1925.057739 106.660522, 1923.234131 105.056641, 1921.424683 103.069885, 1919.380005 100.989197, 1919.968262 98.166382, 1920.082886 94.910828, 1920.208130 92.075378, 1917.010620 92.828247, 1915.345703 94.057068, 1912.959961 94.957336, 1910.516113 95.823608, 1908.188110 93.997742, 1905.451416 92.612854, 1903.017578 93.900696, 1900.402344 95.090698, 1897.545898 96.535034, 1894.995850 98.653625, 1892.757446 101.784119, 1892.484619 106.663513, 1900.889282 112.097290, 1904.678711 110.311157, 1906.327637 107.487671, 1907.393555 105.046082, 1905.988281 101.842407, 1903.968872 99.046692, 1901.672607 96.430359, 1899.148438 94.159668, 1896.462524 91.880371, 1893.763550 89.748901, 1891.073975 87.779846, 1890.429077 84.918945, 1887.841064 83.009949, 1885.177979 81.205444, 1882.643433 79.484924, 1880.173950 77.724915, 1877.643799 76.047546, 1875.199463 74.359741, 1874.611572 71.513672, 1874.032837 68.592346, 1873.536255 65.663452, 1872.990723 62.716980, 1872.387451 59.688293, 1869.735229 58.333557, 1867.113647 56.977905, 1864.389282 55.578552, 1861.716675 54.172424, 1861.009155 51.252686, 1860.191650 48.240356, 1859.619751 45.291443, 1856.839355 44.012756, 1853.970581 42.733398, 1851.147339 41.457397, 1848.376465 40.219238, 1847.546021 37.432434, 1846.365967 34.664185, 1845.582886 32.006165, 1845.344238 29.204712, 1842.963379 26.497314, 1841.107910 28.347473, 1839.673096 30.112366, 1838.224976 31.662781, 1836.649170 33.049744, 1837.966919 35.552979, 1836.485229 36.845154, 1835.314087 37.968811, 1834.329834 38.948120, 1833.455811 39.846436, 1832.695068 40.741394, 1831.912354 41.611145, 1830.958862 42.644653, 1829.807739 43.911072, 1828.353638 45.383667, 1826.809082 47.042725, 1825.268677 48.749146, 1823.883301 50.350647, 1822.676147 51.717712, 1821.628296 52.878479, 1820.563599 53.932495, 1819.351074 55.058228, 1817.905396 56.201294, 1816.460205 57.521301, 1814.104858 56.286865, 1811.496826 55.338928, 1810.416870 56.588501, 1809.157593 57.877319, 1807.887207 59.146851, 1806.641357 60.363342, 1805.407593 61.563110, 1804.192993 62.690308, 1802.991211 63.812378, 1801.751099 64.910950, 1800.396973 65.976379, 1799.019043 67.068787, 1797.550049 68.204712, 1795.985840 69.342896, 1794.401978 70.629578, 1792.732300 71.855469, 1792.400269 74.676880, 1790.685791 76.042786, 1789.221802 77.386169, 1787.898926 78.597412, 1786.770142 79.639404, 1785.677124 80.519897, 1784.581665 81.404419, 1783.273193 82.457947, 1781.763916 83.791992, 1780.017212 85.396057, 1778.202393 87.120850, 1776.248901 89.046692, 1774.474487 90.901550, 1772.677612 92.749390, 1770.962036 94.570251, 1769.247070 96.329712, 1767.511353 98.189880, 1765.836182 99.862732, 1765.752686 102.748352, 1765.559937 105.558044, 1764.015869 107.159729, 1762.497559 108.800293, 1760.921997 110.391541, 1759.219360 111.970520, 1757.469238 113.521362, 1755.705688 115.003418, 1753.885254 116.435791, 1752.135986 117.857910, 1750.352661 119.239197, 1748.732666 120.541748, 1746.981323 121.956604, 1745.198730 123.315979, 1743.512451 124.751648, 1741.912720 126.251770, 1740.238159 127.511963, 1740.809570 129.791016, 1741.354736 132.083923, 1739.732056 133.725769, 1738.212036 135.461365, 1736.698486 137.166443, 1735.268799 138.866272, 1733.838379 140.563599, 1732.555420 142.314880, 1731.228027 144.050171, 1729.855469 145.722839, 1728.518799 147.346375, 1727.194214 149.019226, 1725.793091 150.539734, 1726.483154 152.951294, 1725.012085 154.631287, 1723.496338 156.255371, 1722.001221 157.869568, 1720.423340 159.565979, 1718.858765 160.973511, 1719.193237 163.372864, 1717.390259 164.896057, 1717.450195 167.245422, 1715.764038 168.680725, 1713.866577 170.266052, 1711.991577 171.828552, 1710.169556 173.420288, 1708.138916 174.877502, 1708.027222 177.270752, 1707.771606 179.577576, 1705.748901 181.148621, 1703.596802 182.658386, 1701.443115 184.234375, 1699.361084 185.744690, 1697.349121 187.316895, 1695.285522 188.847412, 1693.262451 190.232849, 1691.333740 191.638245, 1689.264038 193.031189, 1689.158447 195.541626, 1688.907349 197.898499, 1686.554688 199.597656, 1684.298096 201.327698, 1682.212891 202.935852, 1679.987793 204.523193, 1677.641724 206.202332, 1675.220825 207.928406, 1672.539062 209.866455, 1670.305176 211.576721, 1669.562500 214.102844, 1668.548340 216.751465, 1665.453003 218.842041, 1662.528809 220.947876, 1659.106812 223.899841, 1654.957520 227.080627, 1650.117676 230.454590, 1646.502441 233.149597, 1641.463257 236.409302, 1636.239380 239.547729, 1630.904541 242.328857, 1625.901123 245.140198, 1618.658081 247.455017, 1612.368530 248.799316, 1608.797852 248.777771, 1603.874512 249.072266, 1598.963501 248.708435, 1594.487305 248.163818, 1590.924438 247.548584, 1587.439331 246.738403, 1584.383179 246.023315, 1581.138794 245.061035, 1578.325806 244.220703, 1575.939331 245.262390, 1573.172607 246.018066, 1570.452759 245.126465, 1567.937134 244.358521, 1565.181396 243.636658, 1562.819946 242.782043, 1560.498169 241.939453, 1558.183716 241.119385, 1556.031128 240.137939, 1554.196045 239.202881, 1551.828003 240.474304, 1549.663574 241.485474, 1547.523682 240.439819, 1545.364868 239.563049, 1543.246216 238.588379, 1541.297974 237.620605, 1539.310669 236.601990, 1537.430176 235.554688, 1535.479248 234.440247, 1533.675781 233.402893, 1532.231445 232.262207, 1530.170288 233.504578, 1528.341553 234.647888, 1526.579956 233.676208, 1524.739746 232.749084, 1522.895264 231.724304, 1520.992676 230.902771, 1519.256592 230.016907, 1517.072632 231.218384, 1515.356323 230.308411, 1513.087280 231.578735, 1511.231567 230.704834, 1509.165894 229.889343, 1507.115479 229.031738, 1505.067017 228.201294, 1503.086060 227.283081, 1500.791748 228.484985, 1498.701782 227.497131, 1496.671387 226.605408, 1494.664185 225.617676, 1492.674194 224.656494, 1490.630493 223.682495, 1488.643433 222.677856, 1486.593872 221.723511, 1484.562988 220.708557, 1482.582642 219.658997, 1480.579102 218.631653, 1478.904785 217.503479, 1476.632324 218.581238, 1474.741699 219.803772, 1472.885742 218.747925, 1470.990112 217.738892, 1469.165894 216.741455, 1467.387695 215.743103, 1465.624512 214.755798, 1463.841553 213.865051, 1462.122192 213.033569, 1460.411377 212.174561, 1458.697510 211.418823, 1457.021484 210.737183, 1455.299072 210.084534, 1453.583984 209.630737, 1451.846558 209.282227, 1450.068115 209.070679, 1448.456543 208.895935, 1446.338379 210.846191, 1444.414185 213.163208, 1442.420532 212.991516, 1440.387207 212.990601, 1438.253662 212.942688, 1436.097656 212.859985, 1433.907227 212.772949, 1431.624146 212.737061, 1429.406372 212.669067, 1427.283081 212.619995, 1425.397949 212.545288, 1423.822754 212.345825, 1422.641113 212.087585, 1421.359863 211.889893, 1420.026123 211.668884, 1418.188232 211.419983, 1416.270508 211.098389, 1413.951416 210.784302, 1411.601074 210.365356, 1408.576416 211.526978, 1406.251831 211.105469, 1403.764282 210.714722, 1401.255859 210.374023, 1399.007935 210.003723, 1396.495605 209.668152, 1394.187866 209.383362, 1391.895996 209.164429, 1389.906616 208.932373, 1387.621094 208.708008, 1385.411621 208.376465, 1383.156982 208.008972, 1380.897339 207.561157, 1378.623169 207.147888, 1376.504028 206.673157, 1374.432617 206.084900, 1372.212769 205.510315, 1371.263794 203.023743, 1370.796753 200.336426, 1368.915894 199.780273, 1367.150024 199.175171, 1365.484985 198.740173, 1363.855713 198.324158, 1362.047363 197.824585, 1360.000977 197.212402, 1357.754028 196.497070, 1355.498413 195.769226, 1353.431030 195.141907, 1351.675659 194.682617, 1350.218628 194.367188, 1348.959717 194.165344, 1347.776001 193.994751, 1346.562500 193.808533, 1345.155640 193.533081, 1343.626709 193.220337, 1341.704834 195.216492, 1339.950195 194.785278, 1337.903442 194.258545, 1335.831055 193.471558, 1333.845459 192.305237, 1331.372437 191.325989, 1331.144531 194.557556, 1332.016235 197.296997, 1332.509521 199.944519, 1330.721191 201.886292, 1328.897461 203.801880, 1327.308594 205.722473, 1327.834595 208.492188, 1328.153931 211.178772, 1326.487427 213.182190, 1324.907349 215.254761, 1323.365845 217.434875, 1321.883057 219.556702, 1320.438477 221.977966, 1320.322632 224.709900, 1320.076294 227.194641, 1318.429932 229.483032, 1316.504395 231.966797, 1314.627686 234.298157, 1312.482300 236.685303, 1310.407837 238.999939, 1308.831787 239.366211, 1307.169922 239.686157, 1305.647705 240.010986, 1304.080078 240.266235, 1302.445435 240.457336, 1300.768799 240.529724, 1299.080933 240.538513, 1297.474731 240.416443, 1296.094238 240.146362, 1294.648560 242.731934, 1293.457275 245.142273, 1291.939697 245.074097, 1290.517578 245.062805, 1289.001221 244.948547, 1287.511230 244.847046, 1286.076904 244.635559, 1284.684692 244.322205, 1283.314697 243.959839, 1281.950928 243.586609, 1280.609009 243.206604, 1279.267334 242.771729, 1278.058472 242.342224, 1277.158325 241.809875, 1275.432373 245.014954, 1274.741943 247.986938, 1273.685791 250.593262, 1272.232544 252.824951, 1270.987183 252.583130, 1269.771484 252.298523, 1268.611084 251.949829, 1267.499390 251.578979, 1266.450073 251.158875, 1265.397705 250.770142, 1264.318237 250.381470, 1263.190918 249.931274, 1262.002197 249.502441, 1262.309692 246.940491, 1261.192139 246.575562, 1260.142212 246.123535, 1259.094238 245.676514, 1258.072754 245.155518, 1257.045654 244.650208, 1256.024170 244.086304, 1255.003174 243.503540, 1253.931274 242.851807, 1252.940430 242.143250, 1251.284302 243.663086, 1250.262573 242.847351, 1249.110596 242.073364, 1248.012573 241.270996, 1246.903076 240.507080, 1245.709595 239.797668, 1244.484863 239.082092, 1243.209106 238.473267, 1241.944092 237.970459, 1240.683594 237.545349, 1239.443481 237.216553, 1238.178345 236.917847, 1236.954712 236.600769, 1235.701416 236.292847, 1234.451904 235.918030, 1233.148560 235.484497, 1231.781738 235.038696, 1230.431885 234.515686, 1228.975952 233.934082, 1227.574585 233.340759, 1226.189453 232.744507, 1224.777710 232.141907, 1223.449463 231.566406, 1222.233887 231.004761, 1221.046631 230.464661, 1219.712402 229.958252, 1219.103760 232.428467, 1217.993286 234.240906, 1216.742554 235.592407, 1216.949585 237.194397, 1217.179565 238.848389, 1217.160645 240.863220, 1216.908691 243.468384, 1216.389526 246.577087, 1215.712891 250.125488, 1215.189941 253.974792, 1214.612061 257.932556, 1214.266724 261.956848, 1212.603394 265.410645, 1211.066406 268.705017, 1209.611450 271.790039, 1209.672974 274.982483, 1209.814819 278.008728, 1210.025635 280.784851, 1210.326904 283.506165, 1210.660034 286.145081, 1211.081665 288.707336, 1209.979858 291.036499, 1208.736816 293.282776, 1209.106079 295.880615, 1209.477173 298.514343, 1209.852173 301.135864, 1210.313110 303.667419, 1210.836670 306.036865, 1211.579834 308.117798, 1210.532837 310.326294, 1209.511353 312.378235, 1210.396240 314.278931, 1211.300293 316.043579, 1212.199463 317.716980, 1213.165405 319.429932, 1214.322754 321.037048, 1213.727417 323.257446, 1213.089233 325.699402, 1214.508057 327.161316, 1214.081665 329.684631, 1213.689453 332.307190, 1213.358032 335.026367, 1213.276245 337.955627, 1213.108521 340.656433, 1214.963135 341.680664, 1216.835815 342.710876, 1218.785767 343.679626, 1218.960205 346.084839, 1218.940918 348.457825, 1218.761841 350.664001, 1218.441284 352.833069, 1218.144897 354.954773, 1217.728271 357.188904, 1217.315063 359.448975, 1215.287476 361.093018, 1215.013916 363.454590, 1214.649170 365.941528, 1214.441162 368.416504, 1213.944092 370.562134, 1215.617188 371.390625, 1217.191528 372.348450, 1218.654907 373.410278, 1220.122925 374.626892, 1221.481445 376.091919, 1221.083618 379.075317, 1220.709473 382.387695, 1220.308716 385.594849, 1218.606812 388.485168, 1218.057251 391.970764, 1217.685669 396.331970, 1217.444580 401.019348, 1217.089111 405.611633, 1217.059448 410.049255, 1215.308594 413.383240, 1213.806274 417.253296, 1213.936890 421.400940, 1214.250488 424.980286, 1214.572876 428.921509, 1215.087158 432.821472, 1215.694092 436.044250, 1214.016113 440.206177, 1212.583984 444.763367, 1213.324219 447.629639, 1214.078125 450.053772, 1212.480469 453.956726, 1210.926392 457.733826, 1211.856812 459.735596, 1210.232788 463.138245, 1211.162964 465.304993, 1212.079346 467.624817, 1213.190308 469.578674, 1214.323730 471.820801, 1215.485962 473.863342, 1214.667725 477.515503, 1215.875488 479.574280, 1217.565552 481.920471, 1218.906494 483.946838, 1220.438843 486.323486, 1220.171997 490.060852, 1219.708374 493.664734, 1219.526245 497.422607, 1221.137817 499.484314, 1222.681885 501.984497, 1223.925537 504.302490, 1225.228271 506.285400, 1224.713867 509.712463, 1224.018188 513.393921, 1225.074097 515.637451, 1226.123779 517.954346, 1227.132202 520.418823, 1228.149292 522.809448, 1229.135742 524.889832, 1228.420288 528.705322, 1227.816650 532.635254, 1227.163696 537.152954, 1228.575195 538.914062, 1230.038208 541.100464, 1231.363892 543.176392, 1230.859741 547.170837, 1230.073975 550.824585, 1229.158569 554.201660, 1230.829834 555.910889, 1233.052124 558.386353, 1235.109253 560.979309, 1237.391235 563.398010, 1239.777710 565.861389, 1242.416992 569.049316, 1244.766968 572.208618, 1247.342773 575.739380, 1249.362427 578.872498, 1251.195923 582.616638, 1252.618774 585.489624, 1253.421265 591.170044, 1253.987549 598.478821, 1254.022705 606.837646, 1254.000244 614.593018, 1253.274780 620.863342, 1251.469849 624.521606, 1248.157227 626.345581, 1244.741943 628.729431, 1241.045532 631.521606, 1239.269409 635.127319, 1237.707886 638.231934, 1236.097656 641.509583, 1234.578247 644.995239, 1232.779907 648.893921, 1231.065063 652.804688, 1229.134033 657.235107, 1227.640747 661.300171, 1225.943481 665.631226, 1225.012085 668.955750, 1223.985840 672.742432, 1221.216431 675.670166, 1218.105591 679.166199, 1215.081665 682.366882, 1214.637695 685.530273, 1214.312988 688.302246, 1213.779053 690.889282, 1210.901367 693.695496, 1208.254517 696.519043, 1205.623291 698.758545, 1205.401001 701.080444, 1205.089722 703.391968, 1204.772339 705.559448, 1204.275757 707.804932, 1204.186646 709.741089, 1201.722290 712.203308, 1198.966309 714.114136, 1198.496826 716.763550, 1197.999146 719.481079, 1197.581055 722.210510, 1197.023804 725.102722, 1194.535400 727.594849, 1192.067261 730.380493, 1189.323730 732.579346, 1189.596191 735.250305, 1189.606567 737.854736, 1189.767334 740.242310, 1190.124512 743.137207, 1187.916016 745.676697, 1188.464355 748.448486, 1188.786743 751.169189, 1189.333252 753.704468, 1189.899414 756.153809, 1190.579102 758.440552, 1188.866821 761.654968, 1189.700439 763.669189, 1187.874878 766.805664, 1186.013306 769.351807, 1186.952759 771.082520, 1187.921387 772.802917, 1185.903687 775.191162, 1183.830200 777.496033, 1184.914795 779.133484, 1186.055176 780.768188, 1187.140869 782.311218, 1188.541260 784.050293, 1189.707642 785.785339, 1188.206177 788.002502, 1186.840942 790.217224, 1188.387207 792.176270, 1189.732056 794.361694, 1190.844727 796.586853, 1191.740845 798.890320, 1192.456909 801.267334, 1190.874512 803.034607, 1191.803711 805.556458, 1193.557495 806.253601, 1195.308472 807.360779, 1196.882568 808.758606, 1198.657227 810.381470, 1200.252930 811.927368, 1200.662354 815.509644, 1201.389404 819.051025, 1201.987183 822.967773, 1202.633789 826.594849, 1203.323364 830.055969, 1204.028198 833.851074, 1203.031860 836.745667, 1203.795532 839.853760, 1204.462524 842.831177, 1205.234375 845.885559, 1206.010620 848.790161, 1206.978638 851.721191, 1208.916626 852.440857, 1211.155640 853.228333, 1213.263306 853.998169, 1214.303223 856.882080, 1215.911743 859.820801, 1217.358032 862.681763, 1218.688965 865.329834, 1220.469482 867.772217, 1222.560669 867.665894, 1224.027100 869.802795, 1225.748779 871.625671, 1227.875122 871.579285, 1230.066772 871.449463, 1232.268433 871.491089, 1234.709595 871.804688, 1237.511841 872.113464, 1239.265869 873.950806, 1241.275635 875.718750, 1244.046265 876.156006, 1247.164795 876.846924, 1250.341064 877.625061, 1253.469604 878.366455, 1256.740845 879.341553, 1259.645264 880.190796, 1261.859497 882.168701, 1264.123413 884.139954, 1267.276123 885.168823, 1270.321655 886.222290, 1273.364990 887.358765, 1276.843018 888.659973, 1280.389404 889.956665, 1283.976440 891.378906, 1286.706543 893.601196, 1289.555786 896.115295, 1292.476318 898.895142, 1296.264160 900.731934, 1299.967896 902.604797, 1303.548218 904.512756, 1306.760742 906.236145, 1309.613525 907.721863, 1311.919067 908.953552, 1313.759033 909.883850, 1315.304077 910.650940, 1316.538208 911.501465, 1316.481079 913.381042, 1316.570190 915.740662, 1318.322510 917.693542, 1319.059937 916.913696, 1320.120361 916.218018, 1321.327881 915.504456, 1322.687012 914.869507, 1323.973511 914.113892, 1325.315186 916.486572, 1327.126709 919.021790, 1328.045532 918.211243, 1329.262695 917.413818, 1330.629028 916.565918, 1332.106812 915.811279, 1333.763550 915.134888, 1335.380005 914.606140, 1337.199341 914.372437, 1338.895752 914.111389, 1340.100708 916.231018, 1341.302979 918.886719, 1342.467896 921.679443, 1343.892334 920.922729, 1345.634033 920.198669, 1347.570190 919.785706, 1349.762695 919.386230, 1351.776245 919.172424, 1353.758667 918.980225, 1355.216675 921.097534, 1356.931152 923.705322, 1357.989746 926.611816, 1359.203003 929.489990, 1360.845215 928.456177, 1362.889404 927.762817, 1365.136475 927.083252, 1367.396606 926.624146, 1369.626343 926.250061, 1371.721191 925.919434, 1374.181763 925.840027, 1376.135132 927.854553, 1378.431763 930.350220, 1380.218994 932.622681, 1381.875854 935.186768, 1383.281372 937.790894, 1384.397339 940.280823, 1385.394897 942.538818, 1388.378174 941.168884, 1390.983398 940.003540, 1392.469971 942.105103, 1393.985229 944.320374, 1395.188843 946.567261, 1396.284546 948.705933, 1397.539062 950.957642, 1400.209717 949.289978, 1403.209473 947.794128, 1406.263550 946.337524, 1409.274048 945.233582, 1412.473633 944.182312, 1415.825684 943.683777, 1418.994751 943.119812, 1421.039429 944.756592, 1423.089111 946.300110, 1425.056763 947.950500, 1426.773926 949.555786, 1428.558228 951.222717, 1430.113037 952.843384, 1431.661743 954.484131, 1433.105103 956.188599, 1434.507568 957.857605, 1435.838501 959.494812, 1437.359741 961.176575, 1440.547729 959.497314, 1441.986328 961.079346, 1443.443481 962.637939, 1444.774780 964.167114, 1446.058228 965.662415, 1447.396729 967.237915, 1450.930054 965.548096, 1454.434082 963.890503, 1458.130005 962.406067, 1462.159424 961.257324, 1466.187744 960.561096, 1467.838013 962.023071, 1469.521362 963.512695, 1471.222412 965.065857, 1472.889282 966.744568, 1474.552856 968.465637, 1479.310059 967.582703, 1484.019043 966.817322, 1485.910278 968.343933, 1487.815308 970.011902, 1489.689209 971.503845, 1491.591919 973.193787, 1496.109375 972.019653, 1500.796387 970.900757, 1504.851929 969.984009, 1509.015991 969.248840, 1512.222290 968.497681, 1514.035278 969.383179, 1516.995117 970.006287, 1519.697144 970.664856, 1522.354736 971.361328, 1524.586792 972.028137, 1526.545776 972.622803, 1528.104492 973.307312, 1529.691040 973.900208, 1532.055908 972.074951, 1533.721436 972.911987, 1533.167114 975.839478, 1534.419312 976.684021, 1535.635132 977.458984, 1536.810303 978.225525, 1538.001099 979.069336, 1539.175171 980.094360, 1540.280029 981.234985, 1541.477173 982.458008, 1542.573730 983.749451, 1541.137695 986.518860, 1542.396484 987.799316, 1543.492188 989.059143, 1544.612427 990.277283, 1545.785522 991.486633, 1546.972046 992.707214, 1548.214600 993.981934, 1549.439575 995.367981, 1550.836060 996.835632, 1552.883789 995.582520, 1555.129395 994.340210, 1556.046265 995.870850, 1557.088989 997.502808, 1559.272339 996.293701, 1560.780273 993.283569, 1562.614502 990.460510, 1565.394653 989.236633, 1568.293457 988.031189, 1571.360107 986.747009, 1574.502319 985.428711, 1577.636108 984.201355, 1580.788208 983.074097, 1583.861328 982.197815, 1586.763550 981.499939, 1589.349976 978.630859, 1591.938843 975.848083, 1594.793823 975.606140, 1597.576660 975.476929, 1600.292480 975.345947, 1603.026611 975.396667, 1605.895630 975.320251, 1607.511353 973.070496, 1609.182129 971.034912, 1610.581055 969.313965, 1611.702148 967.783325, 1612.705444 966.465759, 1613.640381 965.126099, 1616.254028 965.239136, 1619.016479 965.443665, 1619.876709 963.921448, 1620.983032 961.972534, 1622.111572 959.648010, 1623.221191 957.189697, 1621.731079 954.130615, 1622.906860 951.354858, 1623.917358 948.518799, 1625.030884 945.741089, 1626.119629 942.850586, 1627.092407 939.940186, 1628.041016 937.043152, 1629.143066 933.834412, 1628.039062 930.797119, 1627.296387 927.461975, 1629.325562 923.913940, 1631.346924 920.376953, 1634.190063 916.459473, 1636.926025 912.467285, 1638.786255 909.463379, 1643.935303 906.503235, 1650.173828 904.246338, 1655.079956 903.583679, 1660.444946 902.735107, 1665.734741 902.291748, 1670.399902 902.005127, 1676.161255 900.585144, 1681.169189 899.042603, 1685.903687 898.580505, 1691.428467 897.867554, 1697.553833 897.423096, 1702.914185 896.607178, 1708.446167 895.715149, 1714.091309 895.025635, 1719.838257 893.921265, 1724.191162 891.599304, 1729.811157 890.198242, 1734.556763 889.057678, 1740.109863 887.439819, 1744.007080 886.470093, 1747.564697 885.185547, 1750.613770 883.962646, 1754.019043 884.448792, 1757.427246 884.578491, 1760.617920 883.081909, 1763.374390 881.568542, 1766.242676 879.664062, 1769.668701 877.483276, 1773.423462 874.828247, 1777.165161 871.755249, 1780.401123 870.797913, 1783.617432 869.712036, 1786.961426 868.341064, 1790.557495 867.037354, 1794.216675 865.587158, 1797.369751 862.163452, 1800.747925 858.779785, 1804.225342 857.367371, 1807.471680 855.831787, 1810.947144 854.217712, 1814.461182 852.485718, 1817.497681 851.084900, 1820.609375 849.744812, 1823.635376 848.682007, 1826.338501 848.054932, 1828.990234 845.775513, 1831.835449 844.129883, 1833.996338 844.934265, 1834.326294 842.757080, 1834.616943 840.831055, 1832.683350 840.339355, 1833.601074 838.388977, 1834.714233 836.733398, 1836.146484 835.012024, 1837.921021 833.168945, 1839.791016 831.192932, 1843.996948 828.882202, 1848.465942 826.521118, 1852.912231 824.375610, 1857.256104 822.547180, 1862.508911 820.271423, 1867.052734 818.388916, 1871.586670 816.491699, 1875.920410 814.698364, 1880.534302 812.745483, 1882.660645 812.636414, 1887.495605 810.811951, 1891.832275 808.809814, 1893.911743 808.673279, 1896.378174 808.651489, 1898.913086 808.698792, 1901.527710 808.750000, 1903.851440 808.855896, 1907.438843 806.957520, 1911.100098 805.119385, 1914.717773 803.434937, 1917.110107 803.692322, 1919.628906 803.846069, 1922.187622 804.316772, 1924.811768 804.694885, 1927.350830 804.988464, 1929.697266 805.472900, 1931.800049 805.954102, 1933.802490 806.421509, 1935.721191 806.788452, 1935.490845 809.761414, 1937.029297 810.082092, 1938.449829 810.568665, 1939.767456 810.990662, 1941.025146 811.503296, 1942.264404 811.989258, 1943.438232 812.530579, 1944.491943 813.134399, 1945.519287 813.670898, 1946.413696 814.319580, 1947.202515 814.954407, 1947.977783 815.534790, 1948.764771 816.119202, 1949.636841 816.736938, 1950.723877 817.297668, 1948.946899 819.442688, 1950.153687 819.934143, 1951.422241 820.462952, 1952.712402 821.075134, 1953.980957 821.721558, 1955.211914 822.484680, 1956.428711 823.257385, 1957.631836 824.059387, 1958.738770 824.920227, 1959.831543 825.821533, 1960.933838 826.737061, 1961.831421 827.619019, 1965.241821 826.900879, 1968.329834 825.582275, 1971.764893 823.971375, 1975.381714 822.523621, 1976.464355 823.544922, 1977.606934 824.571716, 1978.599854 825.600952, 1979.626587 826.609253, 1980.447266 827.521973, 1984.859741 826.445923, 1989.004150 824.897095, 1991.856567 822.311768, 1994.410889 819.877258, 1996.806519 817.579224, 1999.020508 815.392822, 2001.208618 813.364075, 2003.370605 811.442505, 2005.512451 809.601257, 2007.750366 807.879089, 2009.883179 806.158081, 2011.890503 804.416016, 2015.186523 804.058838, 2018.532349 803.443115, 2021.830933 802.825684, 2025.251831 801.971680, 2026.927490 800.089661, 2028.678101 798.157532, 2030.279785 796.226135, 2033.529907 794.791016, 2036.947388 793.089844, 2040.345825 791.011780, 2043.461670 788.649658, 2046.153809 786.448242, 2048.693848 784.039673, 2051.025635 781.598694, 2053.202881 779.164246, 2055.281250 776.734741, 2057.480225 774.226074, 2059.490967 771.713623, 2061.222656 769.340820, 2063.346436 766.754211, 2065.201172 764.211914, 2067.367188 761.497925, 2069.291260 758.786743, 2071.203857 756.168091, 2073.094238 753.018555, 2074.932617 749.943665, 2076.548584 746.869751, 2079.041748 745.742310, 2080.818848 742.649414, 2082.496826 739.146362, 2084.011475 736.180664, 2085.625488 732.458008, 2087.203125 728.789185, 2088.967773 725.585510, 2090.465332 722.221313, 2093.233154 720.036316, 2096.105469 717.899963, 2097.650146 714.326294, 2098.958252 710.663208, 2100.694336 706.671082, 2102.443604 702.894043, 2104.284912 698.942871, 2106.128662 695.081055, 2107.902588 691.590942, 2109.817139 687.193115, 2112.119629 683.404053, 2114.864258 679.185791, 2117.435303 675.021606, 2120.077393 670.844482, 2122.857422 666.799683, 2124.441650 662.532166, 2126.124268 658.526611, 2128.462402 653.441162, 2131.078369 648.349243, 2133.023682 643.698792, 2136.877686 638.428772, 2141.260742 634.132812, 2145.148438 633.083496, 2149.969238 631.369263, 2154.250244 629.572388, 2159.629150 627.817383, 2163.743408 626.768250, 2167.644043 625.454834, 2170.570801 626.933594, 2173.578369 628.374390, 2176.356689 629.952820, 2178.516357 631.593811, 2180.739502 633.147339, 2182.876465 632.871582, 2185.372070 632.657837, 2187.785400 632.233398, 2190.485596 631.739014, 2193.196289 631.256104, 2195.919189 630.780396, 2198.715332 630.464844, 2201.518555 630.131470, 2203.628418 631.973145, 2205.750244 633.779419, 2208.291504 633.215332, 2210.924316 632.920532, 2213.479492 632.564453, 2216.129150 632.278015, 2218.631592 631.959229, 2221.281982 631.654358, 2223.936279 631.348450, 2225.969238 632.706787, 2228.415527 632.121704, 2231.119629 631.595581, 2233.664795 631.098389, 2236.341309 630.446838, 2239.055664 629.855408, 2241.661865 629.157837, 2244.425537 628.367310, 2247.294678 627.595947, 2250.216064 626.609009, 2253.059082 625.656006, 2256.023682 624.679077, 2259.041748 623.630432, 2262.156494 622.649536, 2265.291016 621.588623, 2268.697754 620.388062, 2272.049561 619.265564, 2275.485596 618.081299, 2278.841309 616.789673, 2280.036133 614.793823, 2281.297607 612.670410, 2282.529541 610.584229, 2285.832275 609.147339, 2288.856445 607.675415, 2291.909668 606.120605, 2294.697021 604.454468, 2295.664062 602.025085, 2296.814941 599.434509, 2297.999756 596.737366, 2299.293701 593.998535, 2300.706787 591.231812, 2302.254150 588.436401, 2304.026855 585.469849, 2306.021240 582.183472, 2306.853027 577.763672, 2306.126221 577.902344, 2306.197266 572.596191, 2305.665039 572.887329, 2304.638428 572.913086, 2303.291748 572.690247, 2302.267090 572.578918, 2299.428711 576.492432, 2294.159180 579.095459, 2292.903076 577.751831, 2291.770264 575.801636, 2290.377686 574.698608, 2289.262695 573.633911, 2291.966309 570.688416, 2294.201416 566.253662, 2293.254639 566.178955, 2292.132568 565.637329, 2291.147461 563.840454, 2290.007568 562.654968, 2288.907471 561.395386, 2287.608398 559.805237, 2286.846924 557.896240, 2285.802002 557.589355, 2285.488770 555.646118, 2284.099365 553.892334, 2280.662598 555.331726, 2276.491211 555.880310, 2272.690430 556.216919, 2271.734863 554.469849, 2270.872803 552.852295, 2269.957031 551.262817, 2269.204346 549.753052, 2268.391846 548.315674, 2267.682129 546.833008, 2266.871094 545.394165, 2266.166748 543.946655, 2265.903809 542.557007, 2268.023926 539.538696, 2267.452148 538.753845, 2267.277588 537.267578, 2266.703857 536.017700, 2266.194336 534.772583, 2265.734131 533.396362, 2265.241211 531.943298, 2264.677490 530.445312, 2264.131104 528.890503, 2263.652588 527.339478, 2263.095703 525.581787, 2260.575928 526.567505, 2257.334229 526.142029, 2254.423096 526.006104, 2254.019287 524.036316, 2253.603516 522.032959, 2253.113037 519.935303, 2250.727295 520.265869, 2247.886719 519.657227, 2244.916504 518.879089, 2242.161133 517.972778, 2241.799316 515.532959, 2241.432129 512.953125, 2241.257080 510.422913, 2240.947266 507.931030, 2238.133789 507.269653, 2238.030029 504.522827, 2237.990967 501.711853, 2238.010498 498.781372, 2238.260498 495.828796, 2238.208984 492.682495, 2235.254639 492.156128, 2231.848145 490.679138, 2228.911621 489.395996, 2228.678223 486.421753, 2228.311768 483.358765, 2228.004150 480.171204, 2227.474121 476.854126, 2224.488037 475.746338, 2224.087891 472.749329, 2223.411865 469.554382, 2222.883301 466.379333, 2224.947998 463.021362, 2224.138916 459.830994, 2223.392090 456.865234, 2222.361328 453.982788, 2221.224365 450.717468, 2220.160400 447.785706, 2218.866455 444.661377, 2217.935547 441.940735, 2216.629883 438.474365, 2215.515137 435.855225, 2216.589600 431.762634, 2217.561279 427.798218, 2218.622314 423.787354, 2219.694824 420.246277, 2220.609619 416.907349, 2221.697754 413.413208, 2220.222900 411.175842, 2218.643311 408.849182, 2217.175537 406.977417, 2217.772705 403.430542, 2218.416504 399.933899, 2218.913818 396.511230Z "/>
    </clipPath>
    <filter id="dropshadow">
      <feGaussianBlur in="SourceAlpha" stdDeviation="2"/>
      <feMerge>
        <feMergeNode/>
        <feMergeNode in="SourceGraphic"/>
      </feMerge>
    </filter>
  </defs>
  <g inkscape:label="rois" inkscape:groupmode="layer" id="rois" transform="translate(0,0)" style="display:inline;" class="display_layer">
    <g inkscape:label="shapes" inkscape:groupmode="layer" id="rois_shapes" transform="translate(0,0)" style="display:inline;" clip-path="url(#edgeclip)"/>
    <g inkscape:label="labels" inkscape:groupmode="layer" id="rois_labels" transform="translate(0,0)" style="display:inline;">
    </g>
  </g>
  <svg:g id="sulci" style="display:inline;" inkscape:label="sulci" inkscape:groupmode="layer" class="display_layer">
    <svg:g id="sulci_shapes" style="display:inline;" inkscape:label="shapes" inkscape:groupmode="layer" clip-path="url(#edgeclip)"/>
    <svg:g id="sulci_labels" style="display:inline;" inkscape:label="labels" inkscape:groupmode="layer"/>
  </svg:g>
  <svg:g id="cutouts" style="display:inline;" inkscape:label="cutouts" inkscape:groupmode="layer" class="display_layer">
    <svg:g id="cutouts_shapes" style="display:inline;" inkscape:label="shapes" inkscape:groupmode="layer" clip-path="url(#edgeclip)"/>
    <svg:g id="cutouts_labels" style="display:inline;" inkscape:label="labels" inkscape:groupmode="layer"/>
  </svg:g>
  <svg:g id="display" style="display:inline;" inkscape:label="display" inkscape:groupmode="layer" class="display_layer">
    <svg:g id="display_shapes" style="display:inline;" inkscape:label="shapes" inkscape:groupmode="layer" clip-path="url(#edgeclip)"/>
    <svg:g id="display_labels" style="display:inline;" inkscape:label="labels" inkscape:groupmode="layer"/>
  </svg:g>
</svg>
